<svg width="14" height="14" viewBox="0 0 14 14" fill="none" xmlns="http://www.w3.org/2000/svg">
<path d="M6.33331 10.9987H7.66665V9.66537H6.33331V10.9987ZM6.99998 0.332031C3.31998 0.332031 0.333313 3.3187 0.333313 6.9987C0.333313 10.6787 3.31998 13.6654 6.99998 13.6654C10.68 13.6654 13.6666 10.6787 13.6666 6.9987C13.6666 3.3187 10.68 0.332031 6.99998 0.332031ZM6.99998 12.332C4.05998 12.332 1.66665 9.9387 1.66665 6.9987C1.66665 4.0587 4.05998 1.66536 6.99998 1.66536C9.93998 1.66536 12.3333 4.0587 12.3333 6.9987C12.3333 9.9387 9.93998 12.332 6.99998 12.332ZM6.99998 2.9987C5.52665 2.9987 4.33331 4.19203 4.33331 5.66536H5.66665C5.66665 4.93203 6.26665 4.33203 6.99998 4.33203C7.73331 4.33203 8.33331 4.93203 8.33331 5.66536C8.33331 6.9987 6.33331 6.83203 6.33331 8.9987H7.66665C7.66665 7.4987 9.66665 7.33203 9.66665 5.66536C9.66665 4.19203 8.47331 2.9987 6.99998 2.9987Z" fill="#0073C8"/>
</svg>
